<svg width="16" height="16" viewBox="0 0 16 16" fill="none" xmlns="http://www.w3.org/2000/svg">
<path d="M11.6534 16H11.6758C12.0982 16 12.4975 15.8336 12.7999 15.5312L14.9696 13.3615C15.0439 13.2872 15.1029 13.1991 15.1432 13.102C15.1834 13.005 15.2041 12.9009 15.2041 12.7958C15.2041 12.6908 15.1834 12.5867 15.1432 12.4897C15.1029 12.3926 15.0439 12.3044 14.9696 12.2302L11.7694 9.03005C11.6952 8.95569 11.607 8.8967 11.51 8.85645C11.4129 8.8162 11.3089 8.79548 11.2038 8.79548C11.0987 8.79548 10.9947 8.8162 10.8976 8.85645C10.8006 8.8967 10.7124 8.95569 10.6382 9.03005L9.36294 10.3053C8.77172 10.1293 7.66847 9.72929 6.96925 9.03005C6.27002 8.33082 5.87 7.22756 5.694 6.63633L6.96925 5.36107C7.04361 5.28683 7.1026 5.19867 7.14285 5.10161C7.1831 5.00455 7.20382 4.90051 7.20382 4.79544C7.20382 4.69037 7.1831 4.58633 7.14285 4.48927C7.1026 4.39221 7.04361 4.30405 6.96925 4.22981L3.76912 1.02965C3.61617 0.885286 3.41382 0.804867 3.2035 0.804867C2.99318 0.804867 2.79082 0.885286 2.63788 1.02965L0.468992 3.19936C0.16498 3.50338 -0.00622701 3.921 0.000173243 4.34742C0.018574 5.48667 0.320186 9.44367 3.43871 12.5622C6.55723 15.6808 10.5142 15.9816 11.6534 16ZM3.2043 2.72654L5.27318 4.79544L4.23874 5.82989C4.1446 5.92377 4.07545 6.03971 4.03758 6.16715C3.99971 6.29459 3.99433 6.42948 4.02193 6.55953C4.04113 6.65153 4.51075 8.83324 5.8388 10.1613C7.16685 11.4894 9.34854 11.959 9.44054 11.9782C9.57059 12.0059 9.70552 12.0006 9.83298 11.9628C9.96045 11.9249 10.0764 11.8556 10.1702 11.7614L11.2046 10.7269L13.2735 12.7958L11.6686 14.3999C10.6702 14.3831 7.25406 14.1151 4.56995 11.4302C1.87705 8.73724 1.61624 5.30907 1.60024 4.33062L3.2043 2.72654ZM14.3999 7.19956H16C16 3.09535 12.9015 0 8.79172 0V1.60008C12.0414 1.60008 14.3999 3.9546 14.3999 7.19956Z" fill="#39BDC8"/>
<path d="M8.79883 4.80028C10.4813 4.80028 11.1989 5.51791 11.1989 7.2004H12.799C12.799 4.62027 11.3789 3.2002 8.79883 3.2002V4.80028Z" fill="#39BDC8"/>
</svg>
