<svg width="16" height="19" viewBox="0 0 16 19" fill="none" xmlns="http://www.w3.org/2000/svg">
<path d="M6.54887 3.23755C5.91882 3.23755 5.30292 3.42775 4.77905 3.7841C4.25519 4.14045 3.84688 4.64694 3.60577 5.23953C3.36466 5.83211 3.30158 6.48418 3.42449 7.11327C3.54741 7.74235 3.85081 8.32021 4.29632 8.77376C4.74183 9.2273 5.30945 9.53617 5.92739 9.6613C6.54534 9.78644 7.18585 9.72221 7.76794 9.47676C8.35003 9.2313 8.84755 8.81563 9.19759 8.28232C9.54763 7.749 9.73446 7.12199 9.73446 6.48058C9.73446 5.62048 9.39884 4.7956 8.80142 4.18741C8.20401 3.57922 7.39374 3.23755 6.54887 3.23755ZM6.54887 8.59167C6.13873 8.59167 5.73781 8.46786 5.39679 8.23589C5.05577 8.00392 4.78998 7.67421 4.63303 7.28846C4.47608 6.90271 4.43501 6.47824 4.51503 6.06873C4.59504 5.65922 4.79254 5.28306 5.08255 4.98782C5.37256 4.69258 5.74206 4.49152 6.14431 4.41006C6.54657 4.32861 6.96352 4.37041 7.34244 4.53019C7.72136 4.68998 8.04522 4.96056 8.27308 5.30773C8.50094 5.65489 8.62256 6.06305 8.62256 6.48058C8.62109 7.0395 8.40196 7.57501 8.01323 7.96969C7.6245 8.36437 7.09789 8.58601 6.54887 8.58601V8.59167Z" fill="#39BDC8"/>
<path d="M13.0927 7.06923C12.7155 7.05856 12.3414 6.99572 11.9808 6.88246V7.20507C11.9808 9.50292 10.6354 11.5461 9.65136 13.0403L9.45122 13.3402C8.49499 14.8004 7.22742 16.4361 6.5436 17.2455C5.88758 16.4361 4.59222 14.8004 3.63599 13.3402L3.44697 13.0176C2.46294 11.5235 1.11198 9.48028 1.11198 7.18243C1.11535 6.23075 1.35994 5.29606 1.82208 4.46879C2.28422 3.64153 2.94827 2.9497 3.74998 2.46022C4.55169 1.97075 5.46392 1.70021 6.39841 1.67478C7.33291 1.64935 8.25804 1.86988 9.08429 2.31505C9.12854 1.92589 9.22584 1.54491 9.37339 1.1831C8.37503 0.692221 7.27037 0.468107 6.16344 0.531858C5.05651 0.595609 3.98372 0.945129 3.04612 1.5475C2.10851 2.14988 1.33693 2.98528 0.80404 3.97505C0.271148 4.96482 -0.00552235 6.07639 8.35231e-05 7.20507C8.35231e-05 9.84817 1.45667 12.0611 2.52409 13.6742L2.71867 13.9685C3.78069 15.5354 4.91999 17.0466 6.1322 18.4963L6.55472 19L6.97724 18.4963C8.1893 17.0465 9.32859 15.5353 10.3908 13.9685L10.5854 13.6685C11.6472 12.0555 13.1038 9.84817 13.1038 7.20507C13.0982 7.15979 13.0927 7.11451 13.0927 7.06923Z" fill="#39BDC8"/>
<path d="M13.2212 5.65974C14.7564 5.65974 16.0009 4.39277 16.0009 2.82987C16.0009 1.26698 14.7564 0 13.2212 0C11.6859 0 10.4414 1.26698 10.4414 2.82987C10.4414 4.39277 11.6859 5.65974 13.2212 5.65974Z" fill="#39BDC8"/>
</svg>
